<svg width="227" height="92" viewBox="0 0 227 92" fill="none" xmlns="http://www.w3.org/2000/svg">
<path fill-rule="evenodd" clip-rule="evenodd" d="M46.8751 29.8225C38.7032 21.0338 25.0885 19.8107 15.4281 27.3348C5.1817 35.3155 3.32261 50.1339 11.2555 60.4631C19.1812 70.7829 33.9199 72.652 44.1492 64.6672C45.5325 63.5875 47.523 63.8414 48.5951 65.2344C49.6673 66.6274 49.4151 68.6319 48.0319 69.7117C35.0399 79.8528 16.3156 77.484 6.24224 64.3678C-3.82395 51.2609 -1.47481 32.4315 11.5508 22.2862C24.5659 12.1491 43.2635 14.5148 53.3378 27.6322C54.1678 28.713 54.2225 30.206 53.4739 31.3454L35.6269 58.5088C35.0199 59.4327 33.9805 59.9734 32.8811 59.9374C31.7816 59.9013 30.7793 59.2936 30.2333 58.3319L18.5212 37.7041C17.6525 36.1741 18.1799 34.2246 19.6992 33.3498C21.2185 32.4749 23.1544 33.0061 24.0231 34.5361L33.1809 50.6653L46.8751 29.8225Z" fill="url(#paint0_linear)"/>
<path d="M92.1506 71L106.34 36.1108H97.529L88.7536 60.3492L80.1198 36.1108H71.1675L85.3921 71H92.1506Z" fill="white"/>
<path d="M120.478 30.4846V21.6738H112.021V30.4846H120.478ZM120.301 71V36.1108H112.091V71H120.301Z" fill="white"/>
<path d="M153.217 40.5692C150.987 37.4908 146.847 35.4384 142.566 35.4384C134.392 35.4384 127.881 42.2323 127.881 53.52C127.881 63.8877 133.507 71.6723 142.566 71.6723C146.494 71.6723 150.704 70.1154 153.217 66.6477V71H161.355V21.6738H153.217V40.5692ZM145.043 64.1708C139.629 64.1708 136.091 59.96 136.091 53.52C136.091 47.1154 139.629 42.94 145.043 42.94C150.457 42.94 153.96 47.1508 153.96 53.52C153.96 59.9246 150.457 64.1708 145.043 64.1708Z" fill="white"/>
<path d="M194.199 40.5692C191.97 37.4908 187.83 35.4384 183.548 35.4384C175.375 35.4384 168.864 42.2323 168.864 53.52C168.864 63.8877 174.49 71.6723 183.548 71.6723C187.476 71.6723 191.687 70.1154 194.199 66.6477V71H202.338V21.6738H194.199V40.5692ZM186.025 64.1708C180.612 64.1708 177.073 59.96 177.073 53.52C177.073 47.1154 180.612 42.94 186.025 42.94C191.439 42.94 194.942 47.1508 194.942 53.52C194.942 59.9246 191.439 64.1708 186.025 64.1708Z" fill="white"/>
<path d="M218.669 71.6723C220.084 71.6723 222.03 71.3892 224.047 70.6461V63.64C223.092 63.9584 222.243 64.1 221.429 64.1C219.837 64.1 218.775 63.2861 218.775 61.1631V21.6738H210.637V62.7554C210.637 68.9831 214.033 71.6723 218.669 71.6723Z" fill="white"/>
<defs>
<linearGradient id="paint0_linear" x1="27" y1="16" x2="27" y2="76" gradientUnits="userSpaceOnUse">
<stop stop-color="#6430FF"/>
<stop offset="1" stop-color="#FF6B4A"/>
</linearGradient>
</defs>
</svg>
